<?xml version="1.0" encoding="utf-8"?>
<svg width="1em" height="1em" viewBox="0 0 24 24" xmlns="http://www.w3.org/2000/svg">
  <path fill="currentColor" fill-rule="evenodd" d="M 19.088 1.402 C 18.681 1.266 18.234 1.335 17.888 1.589 C 17.539 1.842 17.333 2.249 17.333 2.682 L 17.333 14.103 C 16.503 13.698 15.591 13.486 14.667 13.485 C 12.013 13.485 9.333 15.274 9.333 18.075 C 9.333 20.875 12.013 22.666 14.667 22.666 C 17.32 22.666 20 20.877 20 18.075 L 20 5.067 C 20.717 5.734 21.333 6.693 21.333 8.083 C 21.333 8.83 21.931 9.434 22.667 9.434 C 23.403 9.434 24 8.83 24 8.083 C 24 5.543 22.725 3.843 21.52 2.827 C 20.864 2.277 20.129 1.828 19.339 1.497 C 19.266 1.467 19.192 1.439 19.117 1.413 L 19.1 1.406 L 19.093 1.403 L 19.091 1.403 L 19.088 1.402 Z M 1.333 2.682 C 0.597 2.682 0 3.287 0 4.033 C 0 4.779 0.597 5.383 1.333 5.383 L 13.333 5.383 C 14.069 5.383 14.667 4.779 14.667 4.033 C 14.667 3.287 14.069 2.683 13.333 2.683 L 1.333 2.683 L 1.333 2.682 Z M 1.333 8.083 C 0.597 8.083 0 8.689 0 9.434 C 0 10.181 0.597 10.785 1.333 10.785 L 13.333 10.785 C 14.069 10.785 14.667 10.179 14.667 9.434 C 14.667 8.687 14.069 8.083 13.333 8.083 L 1.333 8.083 Z M 1.333 13.483 C 0.597 13.483 0 14.089 0 14.835 C 0 15.581 0.597 16.185 1.333 16.185 L 6.667 16.185 C 7.403 16.185 8 15.581 8 14.835 C 8 14.089 7.403 13.485 6.667 13.485 L 1.333 13.483 Z" clip-rule="evenodd"/>
</svg>