<?xml version="1.0" encoding="utf-8"?>
<svg width="1em" height="1em" viewBox="0 0 24 24" xmlns="http://www.w3.org/2000/svg">
  <path fill="currentColor" d="M 20.284 7.337 L 21.205 5.297 L 23.246 4.375 C 23.654 4.189 23.708 3.631 23.343 3.37 C 23.312 3.349 23.28 3.33 23.246 3.315 L 21.205 2.393 L 20.284 0.342 C 20.098 -0.067 19.54 -0.121 19.279 0.245 C 19.258 0.275 19.239 0.308 19.223 0.342 L 18.302 2.382 L 16.25 3.303 C 15.842 3.489 15.788 4.047 16.154 4.308 C 16.184 4.33 16.216 4.348 16.25 4.364 L 18.291 5.285 L 19.212 7.337 C 19.422 7.791 20.074 7.791 20.284 7.337 M 11.004 9.086 L 9.15 5.005 C 8.742 4.096 7.436 4.096 7.028 5.005 L 5.175 9.086 L 1.094 10.939 C 0.185 11.359 0.185 12.653 1.094 13.061 L 5.175 14.915 L 7.028 18.996 C 7.448 19.905 8.742 19.905 9.15 18.996 L 11.004 14.915 L 15.085 13.061 C 15.994 12.642 15.994 11.347 15.085 10.939 L 11.004 9.086 Z M 19.212 16.664 L 18.291 18.704 L 16.25 19.625 C 15.842 19.811 15.788 20.37 16.154 20.63 C 16.184 20.652 16.216 20.671 16.25 20.686 L 18.291 21.607 L 19.212 23.659 C 19.398 24.067 19.956 24.121 20.217 23.756 C 20.238 23.726 20.257 23.693 20.273 23.659 L 21.194 21.619 L 23.246 20.698 C 23.654 20.512 23.708 19.953 23.343 19.693 C 23.312 19.671 23.28 19.652 23.246 19.637 L 21.205 18.716 L 20.284 16.664 C 20.091 16.251 19.523 16.202 19.262 16.576 C 19.243 16.604 19.226 16.633 19.212 16.664"/>
</svg>