<?xml version="1.0" encoding="utf-8"?>
<svg width="1em" height="1em" viewBox="0 0 24 24" xmlns="http://www.w3.org/2000/svg">
  <path d="M 28.302 0 L 28.302 24 L 4.302 24 L 4.302 0 L 28.302 0 Z M 16.895 23.258 L 16.884 23.26 L 16.813 23.295 L 16.793 23.299 L 16.779 23.295 L 16.708 23.26 C 16.698 23.256 16.689 23.259 16.684 23.265 L 16.68 23.275 L 16.663 23.703 L 16.668 23.723 L 16.678 23.736 L 16.782 23.81 L 16.797 23.814 L 16.809 23.81 L 16.913 23.736 L 16.925 23.72 L 16.929 23.703 L 16.912 23.276 C 16.91 23.266 16.903 23.259 16.895 23.258 M 17.16 23.145 L 17.147 23.147 L 16.962 23.24 L 16.952 23.25 L 16.949 23.261 L 16.967 23.691 L 16.972 23.703 L 16.98 23.71 L 17.181 23.803 C 17.193 23.807 17.204 23.803 17.21 23.795 L 17.214 23.781 L 17.18 23.167 C 17.177 23.155 17.17 23.147 17.16 23.145 M 16.445 23.147 C 16.436 23.142 16.425 23.145 16.418 23.153 L 16.412 23.167 L 16.378 23.781 C 16.378 23.793 16.385 23.801 16.395 23.805 L 16.41 23.803 L 16.611 23.71 L 16.621 23.702 L 16.625 23.691 L 16.642 23.261 L 16.639 23.249 L 16.629 23.239 L 16.445 23.147 Z" fill="none" fill-rule="evenodd"/>
  <path fill="currentColor" d="M 13.796 18.529 C 12.814 19.511 11.22 19.511 10.237 18.529 L 0.738 9.034 C -0.632 7.662 -0.004 5.322 1.868 4.82 C 2.738 4.587 3.664 4.837 4.301 5.473 L 12.016 13.189 L 19.732 5.473 C 21.125 4.125 23.455 4.792 23.925 6.672 C 24.135 7.515 23.897 8.406 23.294 9.032 L 13.797 18.531 L 13.796 18.529 Z" fill-rule="evenodd"/>
</svg>