<?xml version="1.0" encoding="utf-8"?>
<svg width="1em" height="1em" viewBox="0 0 24 24" xmlns="http://www.w3.org/2000/svg">
  <path d="M24 0v24H0V0zM12.594 23.258l-.012.002l-.071.035l-.02.004l-.014-.004l-.071-.036c-.01-.003-.019 0-.024.006l-.004.01l-.017.428l.005.02l.01.013l.104.074l.015.004l.012-.004l.104-.074l.012-.016l.004-.017l-.017-.427c-.002-.01-.009-.017-.016-.018m.264-.113l-.014.002l-.184.093l-.01.01l-.003.011l.018.43l.005.012l.008.008l.201.092c.012.004.023 0 .029-.008l.004-.014l-.034-.614c-.003-.012-.01-.02-.02-.022m-.715.002a.023.023 0 0 0-.027.006l-.006.014l-.034.614c0 .012.007.02.017.024l.015-.002l.201-.093l.01-.008l.003-.011l.018-.43l-.003-.012l-.01-.01z" fill="none" fill-rule="evenodd"/>
  <path fill="currentColor" d="M 17.333 15.998 C 19.074 15.998 20.556 17.111 21.105 18.664 L 22.665 18.664 C 23.691 18.664 24.333 19.775 23.82 20.664 C 23.582 21.076 23.142 21.33 22.665 21.33 L 21.105 21.33 C 20.081 24.235 16.296 24.941 14.293 22.601 C 13.973 22.226 13.724 21.796 13.56 21.33 L 1.335 21.33 C 0.309 21.33 -0.333 20.219 0.18 19.331 C 0.418 18.918 0.858 18.664 1.335 18.664 L 13.56 18.664 C 14.125 17.066 15.637 15.997 17.333 15.998 M 17.333 18.664 C 16.306 18.664 15.665 19.775 16.178 20.664 C 16.416 21.076 16.856 21.33 17.333 21.33 C 18.359 21.33 19 20.219 18.487 19.331 C 18.249 18.918 17.809 18.664 17.333 18.664 M 6.667 7.999 C 8.273 7.999 9.722 8.958 10.35 10.436 L 10.439 10.665 L 22.665 10.665 C 23.691 10.666 24.332 11.778 23.818 12.666 C 23.607 13.03 23.238 13.273 22.821 13.322 L 22.665 13.332 L 10.44 13.332 C 9.414 16.235 5.629 16.939 3.627 14.598 C 3.362 14.287 3.145 13.937 2.985 13.561 L 2.895 13.332 L 1.335 13.332 C 0.309 13.33 -0.332 12.219 0.182 11.331 C 0.393 10.967 0.762 10.724 1.179 10.675 L 1.335 10.665 L 2.895 10.665 C 3.46 9.067 4.972 7.998 6.667 7.999 M 6.667 10.665 C 5.641 10.665 5 11.776 5.513 12.665 C 5.751 13.077 6.191 13.332 6.667 13.332 C 7.694 13.332 8.335 12.221 7.822 11.332 C 7.584 10.919 7.144 10.665 6.667 10.665 M 17.333 0 C 19.074 0 20.556 1.113 21.105 2.666 L 22.665 2.666 C 23.691 2.666 24.333 3.777 23.82 4.666 C 23.582 5.079 23.142 5.333 22.665 5.333 L 21.105 5.333 C 20.081 8.237 16.296 8.943 14.293 6.603 C 13.973 6.228 13.724 5.798 13.56 5.333 L 1.335 5.333 C 0.309 5.333 -0.333 4.222 0.18 3.333 C 0.418 2.92 0.858 2.666 1.335 2.666 L 13.56 2.666 C 14.125 1.068 15.637 0 17.333 0 M 17.333 2.666 C 16.306 2.666 15.665 3.777 16.178 4.666 C 16.416 5.079 16.856 5.333 17.333 5.333 C 18.359 5.333 19 4.222 18.487 3.333 C 18.249 2.92 17.809 2.666 17.333 2.666" fill-rule="evenodd"/>
</svg>