<?xml version="1.0" encoding="utf-8"?>
<svg width="1em" height="1em" viewBox="0 0 24 24" xmlns="http://www.w3.org/2000/svg">
  <defs/>
  <path fill="currentColor" d="M 19.736 3.144 C 20.329 3.44 20.569 4.16 20.273 4.753 L 18.864 7.573 C 22.084 9.816 24.002 13.493 24 17.417 L 24 18.617 C 24 19.942 22.925 21.017 21.6 21.017 L 2.4 21.017 C 1.075 21.017 0 19.942 0 18.617 L 0 17.417 C -0.003 13.492 1.916 9.815 5.136 7.572 L 3.727 4.753 C 3.289 3.94 3.895 2.957 4.818 2.984 C 5.273 2.997 5.682 3.267 5.873 3.68 L 7.234 6.401 C 8.739 5.75 10.361 5.416 12 5.417 C 13.693 5.417 15.306 5.767 16.766 6.401 L 18.127 3.68 C 18.424 3.088 19.144 2.848 19.736 3.144 M 6.6 12.617 C 5.214 12.617 4.348 14.117 5.041 15.317 C 5.363 15.874 5.957 16.217 6.6 16.217 C 7.986 16.217 8.852 14.717 8.159 13.517 C 7.837 12.96 7.243 12.617 6.6 12.617 M 17.4 12.617 C 16.014 12.617 15.148 14.117 15.841 15.317 C 16.163 15.874 16.757 16.217 17.4 16.217 C 18.786 16.217 19.652 14.717 18.959 13.517 C 18.637 12.96 18.043 12.617 17.4 12.617" fill-rule="evenodd"/>
</svg>