<?xml version="1.0" encoding="utf-8"?>
<svg width="1em" height="1em" viewBox="0 0 24 24" xmlns="http://www.w3.org/2000/svg">
  <defs/>
  <path fill="currentColor" d="M 12.014 15.23 L 20.096 23.304 C 21.341 24.547 23.466 23.978 23.922 22.28 C 24.134 21.491 23.908 20.65 23.33 20.073 L 15.245 12 L 23.329 3.927 C 24.573 2.683 24.003 0.561 22.303 0.106 C 21.514 -0.105 20.672 0.121 20.094 0.698 L 12.014 8.771 L 3.931 0.698 C 2.709 -0.567 0.575 -0.036 0.089 1.653 C -0.144 2.465 0.089 3.339 0.697 3.925 L 8.783 12 L 0.699 20.075 C -0.567 21.296 -0.033 23.428 1.659 23.912 C 2.471 24.144 3.346 23.91 3.933 23.302 L 12.014 15.23 Z" fill-rule="evenodd"/>
</svg>