<?xml version="1.0" encoding="utf-8"?>
<svg width="1em" height="1em" viewBox="0 0 24 24" xmlns="http://www.w3.org/2000/svg">
  <defs/>
  <path fill="currentColor" d="M 22.105 18.947 C 23.564 18.948 24.475 20.527 23.745 21.79 C 23.439 22.32 22.896 22.669 22.287 22.728 L 22.105 22.737 L 1.895 22.737 C 0.436 22.736 -0.475 21.157 0.255 19.894 C 0.561 19.364 1.104 19.015 1.713 18.956 L 1.895 18.947 L 22.105 18.947 Z M 22.105 10.105 C 23.564 10.105 24.475 11.684 23.746 12.947 C 23.408 13.534 22.782 13.895 22.105 13.895 L 1.895 13.895 C 0.436 13.895 -0.475 12.316 0.254 11.053 C 0.592 10.466 1.218 10.105 1.895 10.105 L 22.105 10.105 Z M 22.105 1.263 C 23.564 1.263 24.475 2.842 23.746 4.105 C 23.408 4.691 22.782 5.053 22.105 5.053 L 1.895 5.053 C 0.436 5.053 -0.475 3.474 0.254 2.211 C 0.592 1.624 1.218 1.263 1.895 1.263 L 22.105 1.263 Z"/>
</svg>